<?xml version="1.0" standalone="no"?>
<!DOCTYPE svg PUBLIC "-//W3C//DTD SVG 20010904//EN"
 "http://www.w3.org/TR/2001/REC-SVG-20010904/DTD/svg10.dtd">
<svg version="1.0" xmlns="http://www.w3.org/2000/svg"
 width="512.000000pt" height="512.000000pt" viewBox="0 0 512.000000 512.000000"
 preserveAspectRatio="xMidYMid meet">

<g transform="translate(0.000000,512.000000) scale(0.100000,-0.100000)"
fill="#000000" stroke="none">
<path d="M1390 5075 c-388 -24 -731 -45 -762 -47 -60 -4 -93 -24 -109 -65 -5
-13 6 -292 26 -670 72 -1367 79 -1684 50 -2408 -9 -209 -17 -444 -18 -522 -2
-167 2 -175 99 -200 108 -26 449 -18 796 21 l297 33 443 -73 443 -73 415 34
c505 41 669 53 870 60 152 6 159 5 350 -33 212 -43 236 -42 267 5 15 23 17
142 20 1324 l4 1299 -40 0 -41 0 0 135 0 135 35 14 c21 9 36 24 40 38 8 32 -1
889 -10 910 -15 38 -62 45 -460 72 -214 15 -475 33 -580 41 -138 11 -358 14
-810 13 -608 -1 -634 -1 -1325 -43z m462 -1172 c354 -234 655 -428 671 -431
15 -2 38 3 52 12 24 16 27 15 104 -36 75 -50 79 -54 74 -84 -3 -18 -1 -39 4
-49 5 -9 282 -197 615 -418 l605 -402 -24 -115 c-32 -152 -68 -258 -141 -412
l-61 -128 -184 0 -185 0 -443 472 c-244 260 -509 541 -589 623 -80 83 -227
238 -326 346 -100 107 -346 370 -548 584 -201 213 -366 391 -366 396 0 8 80
69 92 69 4 0 297 -192 650 -427z m1707 346 c72 -38 131 -86 126 -102 -2 -7
-16 -102 -30 -212 -14 -110 -27 -201 -29 -202 -3 -4 -321 229 -465 340 l-104
81 149 37 c82 20 176 48 209 62 33 14 66 26 74 26 7 1 39 -13 70 -30z m-2100
-1816 c177 -165 346 -330 423 -415 l69 -77 -48 -14 c-26 -8 -117 -40 -201 -71
-158 -58 -239 -75 -282 -58 -14 5 -66 43 -116 84 -50 41 -112 88 -138 104 -25
16 -46 33 -46 37 0 5 41 108 91 230 50 122 97 237 105 255 7 17 16 32 20 32 4
0 59 -48 123 -107z"/>
<path d="M1645 718 c-194 -22 -316 -161 -317 -358 0 -142 66 -251 186 -310
195 -96 445 -22 533 158 39 80 45 211 13 296 -57 150 -224 237 -415 214z m130
-72 c55 -25 103 -74 137 -139 33 -63 37 -203 10 -294 -33 -106 -90 -153 -189
-153 -111 0 -200 65 -245 180 -29 73 -31 211 -4 288 42 123 170 175 291 118z"/>
<path d="M3444 719 c-3 -6 -64 -153 -135 -327 -75 -184 -137 -324 -149 -334
-36 -29 -24 -38 50 -38 68 0 81 5 60 26 -7 7 -4 28 8 65 l19 54 131 3 131 3
21 -48 c12 -26 24 -60 27 -75 5 -28 6 -28 89 -28 68 0 84 3 84 15 0 8 -4 15
-10 15 -9 0 -70 97 -70 111 0 4 29 15 65 24 37 10 64 23 62 29 -2 6 -36 12
-79 14 l-76 3 -91 223 c-49 122 -95 235 -100 249 -11 28 -25 35 -37 16z m44
-350 l49 -134 -54 -3 c-29 -2 -77 -2 -107 0 l-54 3 47 120 c26 66 50 129 54
139 4 10 9 17 12 14 2 -2 26 -65 53 -139z"/>
<path d="M2312 670 c-12 -52 -2 -72 25 -48 13 11 46 17 116 20 l97 4 0 -292
c0 -246 -2 -293 -15 -304 -8 -7 -12 -16 -9 -21 6 -11 184 -12 184 -1 0 4 -7
16 -15 26 -12 16 -15 69 -15 303 l0 283 90 0 c78 0 93 -3 107 -20 31 -36 43
-25 43 38 l0 57 -299 0 -299 0 -10 -45z"/>
<path d="M4380 701 l-45 -17 3 -55 c2 -29 7 -58 12 -63 5 -5 19 9 34 32 32 51
62 72 103 72 80 0 127 -57 126 -154 -1 -118 -66 -231 -226 -387 -56 -54 -98
-101 -95 -105 4 -3 103 -6 220 -5 155 2 216 5 226 14 14 15 38 135 28 144 -3
4 -21 -10 -40 -30 l-34 -37 -105 0 c-58 0 -114 -3 -124 -7 -10 -4 34 45 98
108 92 90 123 128 149 182 33 68 48 145 36 192 -11 42 -72 102 -123 119 -62
21 -185 20 -243 -3z"/>
<path d="M350 701 c0 -5 12 -16 28 -23 l27 -13 3 -296 c2 -255 0 -298 -13
-309 -35 -29 -16 -37 103 -46 182 -13 271 -11 329 9 140 48 233 183 235 341 1
149 -55 251 -169 308 l-67 33 -238 3 c-158 2 -238 0 -238 -7z m421 -83 c114
-52 164 -133 164 -268 0 -144 -32 -208 -129 -257 -71 -37 -187 -43 -233 -14
l-33 21 0 276 0 277 89 -5 c65 -4 103 -12 142 -30z"/>
</g>
</svg>
