<?xml version="1.0" encoding="UTF-8" standalone="no"?>
<svg
   width="183"
   height="64.000008"
   version="1.1"
   id="svg30"
   xmlns:xlink="http://www.w3.org/1999/xlink"
   xmlns="http://www.w3.org/2000/svg"
   xmlns:svg="http://www.w3.org/2000/svg">
  <!-- Created with SVG-edit - https://github.com/SVG-Edit/svgedit-->
  <defs
     id="defs30">
    <linearGradient
       gradientUnits="userSpaceOnUse"
       id="svg_6"
       x1="14.6"
       x2="115.45"
       y1="-37.59"
       y2="95.519997">
      <stop
         offset="0.09"
         stop-color="#FFAEB7"
         id="stop1" />
      <stop
         offset="0.49"
         stop-color="#FF6E36"
         id="stop2" />
      <stop
         offset="1"
         stop-color="#F54F2D"
         id="stop3" />
    </linearGradient>
    <linearGradient
       gradientUnits="userSpaceOnUse"
       id="svg_5"
       x1="-10.42"
       x2="90.459999"
       y1="-18.629999"
       y2="114.45">
      <stop
         offset="0.09"
         stop-color="#FFAEB7"
         id="stop4" />
      <stop
         offset="0.49"
         stop-color="#FF6E36"
         id="stop5" />
      <stop
         offset="1"
         stop-color="#F54F2D"
         id="stop6" />
    </linearGradient>
    <linearGradient
       gradientUnits="userSpaceOnUse"
       id="svg_4"
       x1="-28.780001"
       x2="72.07"
       y1="-4.73"
       y2="128.38">
      <stop
         offset="0.09"
         stop-color="#FFAEB7"
         id="stop7" />
      <stop
         offset="0.49"
         stop-color="#FF6E36"
         id="stop8" />
      <stop
         offset="1"
         stop-color="#F54F2D"
         id="stop9" />
    </linearGradient>
    <linearGradient
       gradientUnits="userSpaceOnUse"
       id="svg_3"
       x1="-46.759998"
       x2="54.099998"
       y1="8.9099998"
       y2="142.00999">
      <stop
         offset="0.09"
         stop-color="#FFAEB7"
         id="stop10" />
      <stop
         offset="0.49"
         stop-color="#FF6E36"
         id="stop11" />
      <stop
         offset="1"
         stop-color="#F54F2D"
         id="stop12" />
    </linearGradient>
    <linearGradient
       gradientUnits="userSpaceOnUse"
       id="svg_2"
       x1="-12.77"
       x2="88.099998"
       y1="-16.85"
       y2="116.25">
      <stop
         offset="0.09"
         stop-color="#FFAEB7"
         id="stop13" />
      <stop
         offset="0.49"
         stop-color="#FF6E36"
         id="stop14" />
      <stop
         offset="1"
         stop-color="#F54F2D"
         id="stop15" />
    </linearGradient>
    <linearGradient
       gradientUnits="userSpaceOnUse"
       id="svg_1"
       x1="21.41"
       x2="122.28"
       y1="-42.75"
       y2="90.330002">
      <stop
         offset="0.09"
         stop-color="#FFAEB7"
         id="stop16" />
      <stop
         offset="0.49"
         stop-color="#FF6E36"
         id="stop17" />
      <stop
         offset="1"
         stop-color="#F54F2D"
         id="stop18" />
    </linearGradient>
    <symbol
       height="105"
       id="svg_7"
       viewBox="0 0 451 105"
       width="451">
      <path
         d="m 54.08,28.76 c 7.87,0 14.25,-6.38 14.25,-14.25 0,-7.87 -6.38,-14.24 -14.25,-14.24 -7.87,0 -14.25,6.37 -14.25,14.24 0,7.87 6.38,14.25 14.25,14.25 z"
         fill="url(#svg_6)"
         id="path18" />
      <path
         d="m 14.71,28.76 c 7.87,0 14.25,-6.38 14.25,-14.25 0,-7.87 -6.38,-14.24 -14.25,-14.24 -7.87,0 -14.25,6.37 -14.25,14.24 0,7.87 6.38,14.25 14.25,14.25 z"
         fill="url(#svg_5)"
         id="path19" />
      <path
         d="m 14.71,66.92 c 7.87,0 14.25,-6.38 14.25,-14.25 0,-7.87 -6.38,-14.25 -14.25,-14.25 -7.87,0 -14.25,6.38 -14.25,14.25 0,7.87 6.38,14.25 14.25,14.25 z"
         fill="url(#svg_4)"
         id="path20" />
      <path
         d="m 14.71,104.28 c 7.87,0 14.25,-6.38 14.25,-14.25 0,-7.87 -6.38,-14.25 -14.25,-14.25 -7.87,0 -14.25,6.38 -14.25,14.25 0,7.87 6.38,14.25 14.25,14.25 z"
         fill="url(#svg_3)"
         id="path21" />
      <path
         d="m 68.33,52.67 c 0,-7.87 -6.38,-14.25 -14.25,-14.25 -7.87,0 -14.25,6.38 -14.25,14.25 v 37.36 c 0,7.87 6.38,14.25 14.25,14.25 7.87,0 14.25,-6.38 14.25,-14.25 z"
         fill="url(#svg_2)"
         id="path22" />
      <path
         d="m 107.69,14.51 c 0,-7.87 -6.38,-14.24 -14.25,-14.24 -7.87,0 -14.25,6.37 -14.25,14.24 v 75.52 c 0,7.87 6.38,14.25 14.25,14.25 7.87,0 14.25,-6.38 14.25,-14.25 z"
         fill="url(#svg_1)"
         id="path23" />
      <path
         d="m 167.99,47.93 v 38.3 h -15.08 v -38.3 z"
         fill="#1c244b"
         id="path24" />
      <path
         d="m 237.27,52.07 c 2.7,2.94 4.05,6.93 4.05,11.95 v 22.21 h -15 v -20.3 c 0,-1.63 -0.49,-2.9 -1.46,-3.84 -0.98,-0.92 -2.28,-1.39 -3.91,-1.39 -1.63,0 -2.99,0.47 -3.94,1.39 -0.96,0.92 -1.43,2.21 -1.43,3.84 v 20.3 h -15 v -20.3 c 0,-1.63 -0.48,-2.9 -1.46,-3.84 -0.97,-0.94 -2.28,-1.39 -3.9,-1.39 -1.63,0 -2.99,0.47 -3.95,1.39 -0.95,0.92 -1.42,2.21 -1.42,3.84 v 20.3 h -15.09 v -38.3 h 15.09 v 5.17 c 1.09,-1.63 2.56,-2.94 4.44,-3.95 1.88,-0.99 4.09,-1.49 6.63,-1.49 2.75,0 5.2,0.6 7.33,1.8 2.13,1.2 3.82,2.88 5.1,5.06 1.41,-1.99 3.19,-3.64 5.37,-4.91 2.18,-1.3 4.58,-1.93 7.19,-1.93 4.89,0 8.68,1.47 11.38,4.41 z"
         fill="#1c244b"
         id="path25" />
      <path
         d="m 267.02,48.99 c 1.79,-1.03 3.92,-1.53 6.41,-1.53 2.98,0 5.69,0.79 8.08,2.35 2.4,1.56 4.3,3.82 5.67,6.79 1.38,2.97 2.07,6.46 2.07,10.49 0,4.02 -0.69,7.53 -2.07,10.48 -1.37,2.97 -3.27,5.24 -5.67,6.8 -2.39,1.56 -5.1,2.35 -8.08,2.35 -2.49,0 -4.63,-0.51 -6.41,-1.53 -1.8,-1.02 -3.15,-2.42 -4.11,-4.18 v 23.55 H 247.83 V 47.93 h 15.08 v 5.23 c 0.96,-1.76 2.31,-3.15 4.11,-4.17 z m 5.4,13.33 c -1.04,-1.12 -2.38,-1.69 -4.01,-1.69 -1.63,0 -2.97,0.57 -4.01,1.69 -1.04,1.14 -1.56,2.72 -1.56,4.75 0,2.03 0.52,3.62 1.56,4.75 1.04,1.12 2.38,1.69 4.01,1.69 1.63,0 2.97,-0.57 4.01,-1.69 1.04,-1.13 1.56,-2.72 1.56,-4.75 0,-2.03 -0.52,-3.62 -1.56,-4.75 z"
         fill="#1c244b"
         id="path26" />
      <path
         d="m 294.04,56.59 c 1.38,-2.97 3.27,-5.24 5.67,-6.8 2.4,-1.56 5.1,-2.35 8.09,-2.35 2.48,0 4.65,0.51 6.46,1.53 1.81,1.02 3.18,2.41 4.14,4.18 v -5.24 h 15 v 38.3 h -15 v -5.23 c -0.96,1.76 -2.33,3.15 -4.14,4.17 -1.81,1.03 -3.96,1.53 -6.46,1.53 -2.99,0 -5.69,-0.79 -8.09,-2.35 -2.4,-1.56 -4.29,-3.82 -5.67,-6.79 -1.37,-2.97 -2.08,-6.46 -2.08,-10.49 0,-4.02 0.69,-7.53 2.08,-10.48 z m 22.78,5.73 c -1.04,-1.12 -2.38,-1.69 -4.01,-1.69 -1.62,0 -2.96,0.57 -4,1.69 -1.05,1.14 -1.56,2.72 -1.56,4.75 0,2.03 0.51,3.62 1.56,4.75 1.04,1.12 2.38,1.69 4,1.69 1.63,0 2.97,-0.57 4.01,-1.69 1.04,-1.13 1.56,-2.72 1.56,-4.75 0,-2.03 -0.52,-3.62 -1.56,-4.75 z"
         fill="#1c244b"
         id="path27" />
      <path
         d="m 340.63,56.65 c 1.64,-2.97 3.96,-5.23 6.93,-6.83 2.97,-1.57 6.34,-2.38 10.15,-2.38 4.98,0 9.17,1.41 12.6,4.21 3.42,2.8 5.58,6.7 6.49,11.68 h -15.95 c -0.59,-2 -1.75,-2.99 -3.46,-2.99 -1.22,0 -2.18,0.57 -2.89,1.7 -0.7,1.12 -1.05,2.8 -1.05,5.03 0,2.23 0.35,3.89 1.05,5.03 0.71,1.14 1.67,1.7 2.89,1.7 1.73,0 2.87,-0.99 3.46,-2.99 h 15.95 c -0.91,4.98 -3.07,8.88 -6.49,11.68 -3.43,2.8 -7.62,4.21 -12.6,4.21 -3.81,0 -7.18,-0.79 -10.15,-2.38 -2.97,-1.58 -5.27,-3.86 -6.93,-6.83 -1.66,-2.97 -2.48,-6.44 -2.48,-10.42 0,-3.98 0.82,-7.47 2.48,-10.42 z"
         fill="#1c244b"
         id="path28" />
      <path
         d="m 405.37,73.4 v 12.83 h -5.7 c -10.5,0 -15.75,-5.23 -15.75,-15.69 V 60.49 h -4.75 V 47.93 h 4.75 V 38.7 H 399 v 9.23 h 6.24 V 60.49 H 399 v 10.32 c 0,0.91 0.21,1.56 0.63,1.96 0.44,0.41 1.14,0.61 2.15,0.61 h 3.61 z"
         fill="#1c244b"
         id="path29" />
      <path
         d="m 411.18,56.59 c 1.37,-2.97 3.27,-5.24 5.67,-6.8 2.4,-1.56 5.1,-2.35 8.08,-2.35 2.49,0 4.65,0.51 6.46,1.53 1.81,1.02 3.19,2.41 4.15,4.18 v -5.24 h 14.99 v 38.3 h -14.99 v -5.23 c -0.96,1.76 -2.34,3.15 -4.15,4.17 -1.81,1.03 -3.96,1.53 -6.46,1.53 -2.98,0 -5.68,-0.79 -8.08,-2.35 -2.4,-1.56 -4.3,-3.82 -5.67,-6.79 -1.38,-2.97 -2.08,-6.46 -2.08,-10.49 0,-4.02 0.68,-7.53 2.08,-10.48 z m 22.78,5.73 c -1.04,-1.12 -2.38,-1.69 -4.01,-1.69 -1.63,0 -2.97,0.57 -4.01,1.69 -1.04,1.14 -1.56,2.72 -1.56,4.75 0,2.03 0.52,3.62 1.56,4.75 1.04,1.12 2.38,1.69 4.01,1.69 1.63,0 2.97,-0.57 4.01,-1.69 1.04,-1.13 1.56,-2.72 1.56,-4.75 0,-2.03 -0.52,-3.62 -1.56,-4.75 z"
         fill="#1c244b"
         id="path30" />
    </symbol>
  </defs>
  <g
     class="layer"
     id="g30"
     transform="translate(-140.82822,-60.278797)">
    <title
       id="title30">Layer 1</title>
    <g
       id="g2">
      <g
         id="svg_10"
         transform="translate(21.828223,-30.721202)"
         style="stroke:none;stroke-opacity:1">
        <use
           id="svg_8"
           transform="matrix(0.354767,0,0,0.354767,130,105)"
           xlink:href="#svg_7"
           style="stroke:none;stroke-opacity:1" />
        <rect
           fill="none"
           height="64"
           id="svg_9"
           stroke-width="5"
           width="183"
           x="119"
           y="91"
           style="stroke:none;stroke-opacity:1" />
      </g>
    </g>
  </g>
</svg>
